<?xml version="1.0" encoding="UTF-8"?>
<svg viewBox="0 0 100 100" width="100" height="100" fill="none" xmlns="http://www.w3.org/2000/svg" role="img" aria-label="Dokumen">
<defs>
<linearGradient id="rca" x1="12" y1="18" x2="52" y2="44" gradientUnits="userSpaceOnUse">
<stop stop-color="#34A28F">
</stop>
<stop offset="1" stop-color="#1B7A6E">
</stop>
</linearGradient>
<linearGradient id="rcb" x1="14" y1="38" x2="80" y2="88" gradientUnits="userSpaceOnUse">
<stop stop-color="#2E8B7C">
</stop>
<stop offset="0.6" stop-color="#15655B">
</stop>
<stop offset="1" stop-color="#0C3B34">
</stop>
</linearGradient>
<linearGradient id="rcc" x1="52" y1="18" x2="72" y2="52" gradientUnits="userSpaceOnUse">
<stop stop-color="#F3D77C">
</stop>
<stop offset="1" stop-color="#C8952E">
</stop>
</linearGradient>
<filter id="rcs" x="-30%" y="-30%" width="160%" height="160%">
<feDropShadow dx="0" dy="6" stdDeviation="5" flood-color="#211C16" flood-opacity="0.12">
</feDropShadow>
</filter>
</defs>
<ellipse cx="50" cy="91" rx="29" ry="5.5" fill="#211C16" opacity="0.09">
</ellipse>
<g filter="url(#rcs)">
<path d="M12 30c0-6.6 5.4-12 12-12h13.6c3.4 0 6.6 1.4 8.9 3.9l4.3 4.7H70c6.6 0 12 5.4 12 12v6H12V30Z" fill="url(#rca)">
</path>
<rect x="24" y="27" width="52" height="44" rx="9" fill="#FBF8F3">
</rect>
<rect x="32" y="37" width="26" height="4.6" rx="2.3" fill="#ECE5DA">
</rect>
<rect x="32" y="47" width="34" height="4.6" rx="2.3" fill="#ECE5DA">
</rect>
<rect x="32" y="57" width="20" height="4.6" rx="2.3" fill="#ECE5DA">
</rect>
<rect x="11" y="40" width="78" height="48" rx="16" fill="url(#rcb)">
</rect>
<path d="M18 54c0-4.4 3.6-8 8-8h12" stroke="#F1ECE3" stroke-opacity="0.4" stroke-width="3" stroke-linecap="round">
</path>
<path d="M67 24v22c0 6.4-5.2 11.6-11.6 11.6S43.8 52.4 43.8 46V33" stroke="url(#rcc)" stroke-width="5.6" stroke-linecap="round">
</path>
<path d="M64.6 28c1.2.8 1.8 1.9 1.8 3.4" stroke="#FAF3E4" stroke-opacity="0.75" stroke-width="2.2" stroke-linecap="round">
</path>
</g>
</svg>
