<?xml version="1.0" encoding="UTF-8"?>
<svg viewBox="0 0 100 100" width="100" height="100" fill="none" stroke="none" stroke-linejoin="miter" stroke-miterlimit="8" xmlns="http://www.w3.org/2000/svg" role="img" aria-label="Percakapan">
<path d="M58 52H84L90 62.39V71.61L84 82H58L52 71.61V62.39Z" stroke="currentColor" stroke-width="6" stroke-opacity="0.32"/>
<path d="M17 18H57L64 30.119999999999997V39.88L57 52H17L10 39.88V30.119999999999997Z" stroke="currentColor" stroke-width="7"/>
<path d="M24 52 20 70l16-18" stroke="currentColor" stroke-width="7"/>
<path d="M42 35L39.5 39.33L34.5 39.33L32 35L34.5 30.67L39.5 30.67Z" fill="#C8952E"/>
<path d="M28 35L25.5 39.33L20.5 39.33L18 35L20.5 30.67L25.5 30.67Z" stroke="currentColor" stroke-width="4.5"/>
<path d="M56 35L53.5 39.33L48.5 39.33L46 35L48.5 30.67L53.5 30.67Z" stroke="currentColor" stroke-width="4.5"/>
</svg>
